<?xml version="1.0" standalone="no"?>
<!DOCTYPE svg PUBLIC "-//W3C//DTD SVG 20010904//EN"
 "http://www.w3.org/TR/2001/REC-SVG-20010904/DTD/svg10.dtd">
<svg version="1.0" xmlns="http://www.w3.org/2000/svg"
 width="512.000000pt" height="512.000000pt" viewBox="0 0 512.000000 512.000000"
 preserveAspectRatio="xMidYMid meet">

<g transform="translate(0.000000,512.000000) scale(0.100000,-0.100000)"
fill="#000000" stroke="none">
<path d="M1195 3690 c-289 -25 -525 -132 -728 -329 -181 -176 -292 -394 -333
-651 -24 -152 -15 -391 19 -521 35 -132 77 -229 146 -336 176 -272 455 -458
779 -519 134 -25 377 -15 497 20 220 66 444 216 689 465 68 68 69 70 53 94
-23 35 -327 402 -336 405 -4 1 -79 -63 -167 -144 -185 -170 -262 -215 -396
-233 -446 -61 -761 383 -564 793 92 192 272 307 481 309 110 1 191 -19 302
-74 99 -48 216 -154 351 -318 184 -222 529 -640 596 -721 362 -435 703 -610
1191 -610 283 0 489 57 696 192 331 215 519 572 519 986 0 338 -110 618 -336
852 -287 298 -712 415 -1122 309 -104 -27 -260 -104 -363 -180 -46 -34 -151
-128 -233 -209 l-148 -146 112 -145 c125 -159 219 -272 230 -277 5 -2 49 35
98 81 286 267 488 342 720 266 84 -28 175 -90 229 -158 86 -107 142 -261 143
-387 0 -73 -35 -200 -73 -262 -46 -78 -147 -168 -232 -208 -243 -116 -501 -70
-738 130 -76 65 -201 216 -408 493 -356 478 -504 638 -734 793 -272 184 -607
269 -940 240z"/>
</g>
</svg>
